<svg width="188" height="39" viewBox="0 0 188 39" fill="none" xmlns="http://www.w3.org/2000/svg">
<path fill-rule="evenodd" clip-rule="evenodd" d="M26.357 0.454851L29.2724 3.37028C29.4903 3.59535 29.6107 3.89725 29.6075 4.2105C29.6043 4.52375 29.4777 4.8231 29.2552 5.04363L21.8937 12.4051C21.097 12.1222 20.2392 11.9682 19.3454 11.9682C18.4697 11.9682 17.6286 12.116 16.8456 12.3881L9.49413 5.04363C9.27395 4.82083 9.15047 4.5202 9.15047 4.20696C9.15047 3.89371 9.27395 3.59309 9.49413 3.37028L12.4268 0.454851C12.6496 0.23467 12.9502 0.111191 13.2635 0.111191C13.5767 0.111191 13.8773 0.23467 14.1002 0.454851L18.5595 4.91424C18.7824 5.13442 19.083 5.2579 19.3962 5.2579C19.7095 5.2579 20.0101 5.13442 20.2329 4.91424L24.6837 0.454851C24.9065 0.23467 25.2071 0.111191 25.5203 0.111191C25.8336 0.111191 26.1342 0.23467 26.357 0.454851ZM26.9588 19.5816C26.9588 20.4585 26.8106 21.3007 26.5378 22.0847L33.8523 29.3503C33.9615 29.4614 34.0917 29.5497 34.2353 29.6099C34.379 29.6701 34.5332 29.7012 34.689 29.7012C34.8447 29.7012 34.9989 29.6701 35.1426 29.6099C35.2862 29.5497 35.4164 29.4614 35.5256 29.3503L38.4324 26.4435C38.5435 26.3343 38.6318 26.2041 38.692 26.0605C38.7522 25.9168 38.7833 25.7626 38.7833 25.6068C38.7833 25.4511 38.7522 25.2969 38.692 25.1532C38.6318 25.0096 38.5435 24.8794 38.4324 24.7702L33.9817 20.3108C33.8706 20.2016 33.7823 20.0714 33.7221 19.9277C33.6619 19.7841 33.6308 19.6299 33.6308 19.4741C33.6308 19.3183 33.6619 19.1641 33.7221 19.0205C33.7823 18.8768 33.8706 18.7466 33.9817 18.6374L38.4324 14.2039C38.5435 14.0947 38.6318 13.9645 38.692 13.8209C38.7522 13.6772 38.7833 13.523 38.7833 13.3672C38.7833 13.2115 38.7522 13.0573 38.692 12.9136C38.6318 12.77 38.5435 12.6397 38.4324 12.5306L35.5256 9.62376C35.4147 9.51433 35.2832 9.42809 35.1386 9.37006C34.994 9.31203 34.8393 9.28339 34.6835 9.2858C34.5278 9.28821 34.374 9.32162 34.2313 9.38409C34.0886 9.44656 33.9597 9.53683 33.8523 9.64964L26.506 16.9889C26.7991 17.7981 26.9588 18.6712 26.9588 19.5816ZM19.3454 27.195C18.4247 27.195 17.5422 27.0316 16.7252 26.7322L9.49413 33.9564C9.27395 34.1792 9.15047 34.4798 9.15047 34.793C9.15047 35.1063 9.27395 35.4069 9.49413 35.6297L12.4268 38.5451C12.6496 38.7653 12.9502 38.8888 13.2635 38.8888C13.5767 38.8888 13.8773 38.7653 14.1002 38.5451L18.5595 34.0858C18.7824 33.8656 19.083 33.7421 19.3962 33.7421C19.7095 33.7421 20.0101 33.8656 20.2329 34.0858L24.6837 38.5451C24.9065 38.7653 25.2071 38.8888 25.5203 38.8888C25.8336 38.8888 26.1342 38.7653 26.357 38.5451L29.2724 35.6297C29.4903 35.4046 29.6107 35.1027 29.6075 34.7895C29.6043 34.4762 29.4777 34.1769 29.2552 33.9564L22.0133 26.7145C21.1831 27.0252 20.2841 27.195 19.3454 27.195ZM11.732 19.5816C11.732 18.6454 11.901 17.7486 12.2101 16.9201L4.93962 9.64964C4.83216 9.53683 4.70331 9.44656 4.56059 9.38409C4.41787 9.32162 4.26414 9.28821 4.10836 9.2858C3.95259 9.28339 3.7979 9.31203 3.65332 9.37006C3.50873 9.42809 3.37715 9.51433 3.26626 9.62376L0.350833 12.5306C0.239733 12.6397 0.151498 12.77 0.0912618 12.9136C0.031026 13.0573 0 13.2115 0 13.3672C0 13.523 0.031026 13.6772 0.0912618 13.8209C0.151498 13.9645 0.239733 14.0947 0.350833 14.2039L4.80161 18.6633C4.9127 18.7725 5.00095 18.9027 5.06119 19.0464C5.12143 19.19 5.15244 19.3442 5.15244 19.5C5.15244 19.6557 5.12143 19.81 5.06119 19.9536C5.00095 20.0973 4.9127 20.2275 4.80161 20.3367L0.350833 24.796C0.239733 24.9052 0.151498 25.0354 0.0912618 25.1791C0.031026 25.3228 0 25.477 0 25.6327C0 25.7885 0.031026 25.9427 0.0912618 26.0863C0.151498 26.23 0.239733 26.3602 0.350833 26.4694L3.26626 29.3762C3.37545 29.4873 3.50567 29.5755 3.64932 29.6358C3.79297 29.696 3.94717 29.727 4.10294 29.727C4.25871 29.727 4.41291 29.696 4.55656 29.6358C4.70021 29.5755 4.83043 29.4873 4.93962 29.3762L12.1789 22.1577C11.8896 21.3531 11.732 20.4858 11.732 19.5816ZM19.3456 22.2026C20.7932 22.2026 21.9666 21.0291 21.9666 19.5816C21.9666 18.134 20.7932 16.9606 19.3456 16.9606C17.8981 16.9606 16.7246 18.134 16.7246 19.5816C16.7246 21.0291 17.8981 22.2026 19.3456 22.2026Z" fill="#FF9900"/>
<path fill-rule="evenodd" clip-rule="evenodd" d="M90.6131 26.9381C89.2605 26.2252 88.1316 25.1521 87.351 23.8374C86.5704 22.5228 86.1687 21.0178 86.1902 19.4891C86.1665 17.9412 86.5797 16.4181 87.3823 15.0944C88.1682 13.8105 89.2838 12.7606 90.6131 12.0541C91.9983 11.3401 93.5341 10.9676 95.0924 10.9676C96.6508 10.9676 98.1866 11.3401 99.5717 12.0541C100.896 12.7575 102.003 13.8087 102.774 15.0944C103.546 16.4316 103.953 17.9485 103.953 19.4926C103.953 21.0367 103.546 22.5536 102.774 23.8908C102.005 25.1802 100.898 26.2342 99.5717 26.9381C98.2003 27.6758 96.6636 28.0521 95.1065 28.0315C93.5404 28.0523 91.9946 27.6761 90.6131 26.9381ZM98.3725 23.002C99.1837 22.0055 99.6266 20.7599 99.6266 19.475C99.6266 18.1901 99.1837 16.9444 98.3725 15.9479C97.945 15.5056 97.4283 15.1592 96.8567 14.9317C96.2851 14.7043 95.6717 14.6011 95.0571 14.6288C94.4396 14.6006 93.8229 14.7021 93.247 14.9269C92.6711 15.1517 92.1487 15.4947 91.7135 15.9338C90.9122 16.9347 90.4755 18.1787 90.4755 19.4608C90.4755 20.743 90.9122 21.987 91.7135 22.9879C92.1459 23.4317 92.6674 23.7788 93.2438 24.0062C93.8202 24.2336 94.4382 24.3361 95.0571 24.307C95.6766 24.343 96.2966 24.2452 96.8748 24.02C97.453 23.7947 97.9759 23.4475 98.4078 23.002H98.3725ZM60.7874 21.1467C61.6653 20.7213 62.4006 20.0498 62.9036 19.2139C63.3629 18.4135 63.6014 17.5055 63.5949 16.5828C63.6172 15.6094 63.3733 14.6484 62.8895 13.8035C62.39 12.9734 61.6528 12.3123 60.7733 11.9059C59.6659 11.4077 58.4601 11.1666 57.2463 11.2005H50.418V27.8692H54.6504V21.8874H57.2604C58.4782 21.9242 59.6873 21.6703 60.7874 21.1467ZM59.2649 16.5687C59.2649 17.1393 59.0534 17.6897 58.6712 18.1135H58.7065C58.1865 18.5214 57.5306 18.7156 56.8724 18.6566H54.5799V14.4806H56.8724C57.5191 14.4279 58.1618 14.622 58.6712 15.0238C59.0534 15.4476 59.2649 15.998 59.2649 16.5687ZM73.5266 21.5771L77.1242 27.8693L81.8363 27.8834L77.8437 21.2808C78.98 21.002 79.9904 20.3515 80.7147 19.4327C81.3578 18.5772 81.7 17.5331 81.6882 16.4629C81.6997 15.5243 81.4559 14.6002 80.9828 13.7894C80.4671 12.9604 79.7154 12.3045 78.8242 11.906C77.7272 11.4144 76.5343 11.1734 75.3325 11.2006H68.2784V27.8693H72.5108V21.5771H73.5266ZM75.1279 18.6991H72.5108V14.5654H75.1279C75.7559 14.5159 76.3784 14.7133 76.8632 15.1156C77.0615 15.3089 77.2163 15.5423 77.3173 15.8002C77.4183 16.058 77.4631 16.3345 77.4487 16.6111C77.466 16.8943 77.4227 17.1779 77.3217 17.4431C77.2208 17.7082 77.0645 17.9488 76.8632 18.1488C76.3784 18.5512 75.7559 18.7485 75.1279 18.6991ZM119.195 21.1468C120.074 20.7235 120.81 20.0515 121.311 19.214C121.77 18.4136 122.009 17.5056 122.002 16.5828C122.025 15.6095 121.781 14.6485 121.297 13.8035C120.798 12.9735 120.06 12.3124 119.181 11.906C118.074 11.4073 116.868 11.1662 115.654 11.2006H108.818V27.8693H113.051V21.8875H115.668C116.886 21.9246 118.095 21.6707 119.195 21.1468ZM117.708 16.5687C117.708 17.1394 117.496 17.6898 117.114 18.1136C116.604 18.5135 115.962 18.7073 115.315 18.6567H113.023V14.4807H115.315C115.962 14.4266 116.605 14.6208 117.114 15.0239C117.496 15.4477 117.708 15.9981 117.708 16.5687ZM130.933 14.4525V17.8244H136.577V20.9563H130.933V24.6174H137.317V27.8693H126.736V11.2006H137.317V14.4525H130.933ZM152.313 24.7373H146.789L146.803 11.2006H142.571V27.8693H152.313V24.7373ZM161.069 24.7373H166.592V27.8693H156.836V11.2006H161.069V24.7373ZM175.45 24.9348H181.911L182.934 27.8833H187.413L181.15 11.2146H176.268L169.997 27.8833H174.413L175.45 24.9348ZM178.702 15.6869L180.818 21.7887H176.586L178.702 15.6869Z" fill="black"/>
</svg>
