<svg width="181" height="180" viewBox="0 0 181 180" fill="none" xmlns="http://www.w3.org/2000/svg">
<path fill-rule="evenodd" clip-rule="evenodd" d="M122.344 1.59522L135.877 15.1282C136.889 16.173 137.448 17.5743 137.433 19.0284C137.418 20.4824 136.83 21.872 135.797 22.8957L101.627 57.0661C97.9288 55.7531 93.9474 55.0384 89.7992 55.0384C85.734 55.0384 81.8291 55.7248 78.1941 56.988L44.0692 22.8957C43.0472 21.8614 42.474 20.466 42.474 19.0119C42.474 17.5579 43.0472 16.1625 44.0692 15.1282L57.6823 1.59522C58.7165 0.573174 60.112 0 61.566 0C63.02 0 64.4155 0.573174 65.4497 1.59522L86.1496 22.2951C87.1838 23.3171 88.5793 23.8903 90.0333 23.8903C91.4874 23.8903 92.8828 23.3171 93.917 22.2951L114.577 1.59522C115.611 0.573174 117.007 0 118.461 0C119.915 0 121.31 0.573174 122.344 1.59522ZM125.14 90.3789C125.14 94.4492 124.452 98.3588 123.185 101.998L157.138 135.724C157.645 136.239 158.249 136.649 158.916 136.929C159.583 137.208 160.299 137.352 161.022 137.352C161.745 137.352 162.46 137.208 163.127 136.929C163.794 136.649 164.398 136.239 164.905 135.724L178.398 122.231C178.914 121.724 179.324 121.12 179.603 120.453C179.883 119.786 180.027 119.07 180.027 118.347C180.027 117.624 179.883 116.908 179.603 116.241C179.324 115.575 178.914 114.97 178.398 114.463L157.738 93.7635C157.223 93.2567 156.813 92.6522 156.534 91.9854C156.254 91.3186 156.11 90.6028 156.11 89.8798C156.11 89.1567 156.254 88.4409 156.534 87.7741C156.813 87.1073 157.223 86.5029 157.738 85.996L178.398 65.4163C178.914 64.9095 179.324 64.3051 179.603 63.6382C179.883 62.9714 180.027 62.2556 180.027 61.5326C180.027 60.8095 179.883 60.0937 179.603 59.4269C179.324 58.7601 178.914 58.1557 178.398 57.6489L164.905 44.1559C164.391 43.648 163.78 43.2476 163.109 42.9783C162.438 42.709 161.719 42.576 160.996 42.5872C160.273 42.5984 159.56 42.7535 158.897 43.0434C158.235 43.3334 157.637 43.7524 157.138 44.2761L123.038 78.3439C124.398 82.1003 125.14 86.1529 125.14 90.3789ZM89.7992 125.719C85.5249 125.719 81.4279 124.96 77.6354 123.57L44.0692 157.104C43.0472 158.139 42.474 159.534 42.474 160.988C42.474 162.442 43.0472 163.838 44.0692 164.872L57.6823 178.405C58.7165 179.427 60.112 180 61.566 180C63.02 180 64.4155 179.427 65.4497 178.405L86.1496 157.705C87.1838 156.683 88.5793 156.11 90.0333 156.11C91.4874 156.11 92.8828 156.683 93.917 157.705L114.577 178.405C115.611 179.427 117.007 180 118.461 180C119.915 180 121.31 179.427 122.344 178.405L135.877 164.872C136.889 163.827 137.448 162.426 137.433 160.972C137.418 159.518 136.83 158.128 135.797 157.104L102.182 123.489C98.3284 124.931 94.1559 125.719 89.7992 125.719ZM54.4588 90.3789C54.4588 86.0331 55.2432 81.8706 56.6781 78.0251L22.929 44.2761C22.4302 43.7524 21.8321 43.3334 21.1696 43.0434C20.5071 42.7535 19.7935 42.5984 19.0704 42.5872C18.3473 42.576 17.6293 42.709 16.9582 42.9783C16.287 43.2476 15.6763 43.648 15.1615 44.1559L1.62852 57.6489C1.11281 58.1557 0.70323 58.7601 0.423624 59.4269C0.144018 60.0937 0 60.8095 0 61.5326C0 62.2556 0.144018 62.9714 0.423624 63.6382C0.70323 64.3051 1.11281 64.9095 1.62852 65.4163L22.2883 86.1162C22.8041 86.623 23.2137 87.2274 23.4933 87.8942C23.7729 88.561 23.9169 89.2768 23.9169 89.9999C23.9169 90.7229 23.7729 91.4387 23.4933 92.1055C23.2137 92.7724 22.8041 93.3768 22.2883 93.8836L1.62852 114.583C1.11281 115.09 0.70323 115.695 0.423624 116.362C0.144018 117.028 0 117.744 0 118.467C0 119.19 0.144018 119.906 0.423624 120.573C0.70323 121.24 1.11281 121.844 1.62852 122.351L15.1615 135.844C15.6683 136.36 16.2728 136.769 16.9396 137.049C17.6064 137.328 18.3222 137.472 19.0452 137.472C19.7683 137.472 20.4841 137.328 21.1509 137.049C21.8177 136.769 22.4222 136.36 22.929 135.844L56.5329 102.336C55.1903 98.6016 54.4588 94.5757 54.4588 90.3789ZM89.7984 102.545C96.5177 102.545 101.965 97.0982 101.965 90.3789C101.965 83.6596 96.5177 78.2125 89.7984 78.2125C83.0791 78.2125 77.632 83.6596 77.632 90.3789C77.632 97.0982 83.0791 102.545 89.7984 102.545Z" fill="#FF9900"/>
</svg>
