<svg width="188" height="39" viewBox="0 0 188 39" fill="none" xmlns="http://www.w3.org/2000/svg">
<path fill-rule="evenodd" clip-rule="evenodd" d="M26.357 0.454988L29.2724 3.37042C29.4903 3.59549 29.6107 3.89738 29.6075 4.21064C29.6043 4.52389 29.4777 4.82324 29.2552 5.04377L21.8937 12.4052C21.097 12.1223 20.2392 11.9683 19.3454 11.9683C18.4697 11.9683 17.6286 12.1161 16.8456 12.3882L9.49413 5.04377C9.27395 4.82096 9.15047 4.52034 9.15047 4.20709C9.15047 3.89385 9.27395 3.59323 9.49413 3.37042L12.4268 0.454988C12.6496 0.234808 12.9502 0.111328 13.2635 0.111328C13.5767 0.111328 13.8773 0.234808 14.1002 0.454988L18.5595 4.91438C18.7824 5.13456 19.083 5.25804 19.3962 5.25804C19.7095 5.25804 20.0101 5.13456 20.2329 4.91438L24.6837 0.454988C24.9065 0.234808 25.2071 0.111328 25.5203 0.111328C25.8336 0.111328 26.1342 0.234808 26.357 0.454988ZM26.9588 19.5817C26.9588 20.4586 26.8106 21.3009 26.5378 22.0848L33.8523 29.3505C33.9615 29.4616 34.0917 29.5498 34.2353 29.61C34.379 29.6703 34.5332 29.7013 34.689 29.7013C34.8447 29.7013 34.9989 29.6703 35.1426 29.61C35.2862 29.5498 35.4164 29.4616 35.5256 29.3505L38.4324 26.4437C38.5435 26.3345 38.6318 26.2043 38.692 26.0606C38.7522 25.917 38.7833 25.7628 38.7833 25.607C38.7833 25.4512 38.7522 25.297 38.692 25.1534C38.6318 25.0097 38.5435 24.8795 38.4324 24.7703L33.9817 20.3109C33.8706 20.2017 33.7823 20.0715 33.7221 19.9279C33.6619 19.7842 33.6308 19.63 33.6308 19.4742C33.6308 19.3185 33.6619 19.1643 33.7221 19.0206C33.7823 18.877 33.8706 18.7467 33.9817 18.6376L38.4324 14.204C38.5435 14.0949 38.6318 13.9646 38.692 13.821C38.7522 13.6773 38.7833 13.5231 38.7833 13.3674C38.7833 13.2116 38.7522 13.0574 38.692 12.9137C38.6318 12.7701 38.5435 12.6399 38.4324 12.5307L35.5256 9.6239C35.4147 9.51447 35.2832 9.42822 35.1386 9.3702C34.994 9.31217 34.8393 9.28353 34.6835 9.28594C34.5278 9.28835 34.374 9.32176 34.2313 9.38423C34.0886 9.4467 33.9597 9.53697 33.8523 9.64977L26.506 16.9891C26.7991 17.7983 26.9588 18.6713 26.9588 19.5817ZM19.3454 27.1952C18.4247 27.1952 17.5422 27.0317 16.7252 26.7323L9.49413 33.9565C9.27395 34.1793 9.15047 34.4799 9.15047 34.7932C9.15047 35.1064 9.27395 35.407 9.49413 35.6299L12.4268 38.5453C12.6496 38.7655 12.9502 38.8889 13.2635 38.8889C13.5767 38.8889 13.8773 38.7655 14.1002 38.5453L18.5595 34.0859C18.7824 33.8657 19.083 33.7422 19.3962 33.7422C19.7095 33.7422 20.0101 33.8657 20.2329 34.0859L24.6837 38.5453C24.9065 38.7655 25.2071 38.8889 25.5203 38.8889C25.8336 38.8889 26.1342 38.7655 26.357 38.5453L29.2724 35.6299C29.4903 35.4048 29.6107 35.1029 29.6075 34.7896C29.6043 34.4764 29.4777 34.177 29.2552 33.9565L22.0133 26.7146C21.1831 27.0253 20.2841 27.1952 19.3454 27.1952ZM11.732 19.5817C11.732 18.6455 11.901 17.7487 12.2101 16.9203L4.93962 9.64977C4.83216 9.53697 4.70331 9.4467 4.56059 9.38423C4.41787 9.32176 4.26414 9.28835 4.10836 9.28594C3.95259 9.28353 3.7979 9.31217 3.65332 9.3702C3.50873 9.42822 3.37715 9.51447 3.26626 9.6239L0.350833 12.5307C0.239733 12.6399 0.151498 12.7701 0.0912618 12.9137C0.031026 13.0574 0 13.2116 0 13.3674C0 13.5231 0.031026 13.6773 0.0912618 13.821C0.151498 13.9646 0.239733 14.0949 0.350833 14.204L4.80161 18.6634C4.9127 18.7726 5.00095 18.9028 5.06119 19.0465C5.12143 19.1901 5.15244 19.3443 5.15244 19.5001C5.15244 19.6559 5.12143 19.8101 5.06119 19.9537C5.00095 20.0974 4.9127 20.2276 4.80161 20.3368L0.350833 24.7962C0.239733 24.9054 0.151498 25.0356 0.0912618 25.1792C0.031026 25.3229 0 25.4771 0 25.6329C0 25.7886 0.031026 25.9428 0.0912618 26.0865C0.151498 26.2301 0.239733 26.3604 0.350833 26.4695L3.26626 29.3763C3.37545 29.4874 3.50567 29.5757 3.64932 29.6359C3.79297 29.6962 3.94717 29.7272 4.10294 29.7272C4.25871 29.7272 4.41291 29.6962 4.55656 29.6359C4.70021 29.5757 4.83043 29.4874 4.93962 29.3763L12.1789 22.1578C11.8896 21.3533 11.732 20.4859 11.732 19.5817ZM19.3456 22.2027C20.7932 22.2027 21.9666 21.0293 21.9666 19.5817C21.9666 18.1342 20.7932 16.9607 19.3456 16.9607C17.8981 16.9607 16.7246 18.1342 16.7246 19.5817C16.7246 21.0293 17.8981 22.2027 19.3456 22.2027Z" fill="#FF9900"/>
<path fill-rule="evenodd" clip-rule="evenodd" d="M90.6131 26.9383C89.2605 26.2254 88.1316 25.1522 87.351 23.8376C86.5704 22.5229 86.1687 21.018 86.1902 19.4892C86.1665 17.9414 86.5797 16.4182 87.3823 15.0945C88.1682 13.8106 89.2838 12.7607 90.6131 12.0542C91.9983 11.3403 93.5341 10.9678 95.0924 10.9678C96.6508 10.9678 98.1866 11.3403 99.5717 12.0542C100.896 12.7577 102.003 13.8088 102.774 15.0945C103.546 16.4317 103.953 17.9486 103.953 19.4927C103.953 21.0368 103.546 22.5537 102.774 23.8909C102.005 25.1804 100.898 26.2344 99.5717 26.9383C98.2003 27.676 96.6636 28.0522 95.1065 28.0317C93.5404 28.0524 91.9946 27.6762 90.6131 26.9383ZM98.3725 23.0021C99.1837 22.0056 99.6266 20.76 99.6266 19.4751C99.6266 18.1902 99.1837 16.9446 98.3725 15.9481C97.945 15.5057 97.4283 15.1593 96.8567 14.9319C96.2851 14.7045 95.6717 14.6012 95.0571 14.629C94.4396 14.6007 93.8229 14.7023 93.247 14.927C92.6711 15.1518 92.1487 15.4948 91.7135 15.934C90.9122 16.9349 90.4755 18.1788 90.4755 19.461C90.4755 20.7432 90.9122 21.9871 91.7135 22.988C92.1459 23.4318 92.6674 23.7789 93.2438 24.0063C93.8202 24.2337 94.4382 24.3362 95.0571 24.3071C95.6766 24.3432 96.2966 24.2453 96.8748 24.0201C97.453 23.7949 97.9759 23.4477 98.4078 23.0021H98.3725ZM60.7874 21.1469C61.6653 20.7215 62.4006 20.0499 62.9036 19.2141C63.3629 18.4137 63.6014 17.5057 63.5949 16.5829C63.6172 15.6095 63.3733 14.6485 62.8895 13.8036C62.39 12.9735 61.6528 12.3125 60.7733 11.9061C59.6659 11.4079 58.4601 11.1667 57.2463 11.2007H50.418V27.8694H54.6504V21.8875H57.2604C58.4782 21.9244 59.6873 21.6705 60.7874 21.1469ZM59.2649 16.5688C59.2649 17.1394 59.0534 17.6898 58.6712 18.1136H58.7065C58.1865 18.5215 57.5306 18.7158 56.8724 18.6568H54.5799V14.4808H56.8724C57.5191 14.4281 58.1618 14.6221 58.6712 15.024C59.0534 15.4477 59.2649 15.9981 59.2649 16.5688ZM73.5266 21.5772L77.1242 27.8695L81.8363 27.8836L77.8437 21.281C78.98 21.0022 79.9904 20.3517 80.7147 19.4328C81.3578 18.5773 81.7 17.5332 81.6882 16.463C81.6997 15.5244 81.4559 14.6003 80.9828 13.7896C80.4671 12.9606 79.7154 12.3047 78.8242 11.9061C77.7272 11.4145 76.5343 11.1735 75.3325 11.2007H68.2784V27.8695H72.5108V21.5772H73.5266ZM75.1279 18.6992H72.5108V14.5655H75.1279C75.7559 14.516 76.3784 14.7134 76.8632 15.1157C77.0615 15.309 77.2163 15.5424 77.3173 15.8003C77.4183 16.0582 77.4631 16.3346 77.4487 16.6112C77.466 16.8944 77.4227 17.178 77.3217 17.4432C77.2208 17.7084 77.0645 17.949 76.8632 18.149C76.3784 18.5513 75.7559 18.7487 75.1279 18.6992ZM119.195 21.1469C120.074 20.7236 120.81 20.0516 121.311 19.2141C121.77 18.4137 122.009 17.5058 122.002 16.583C122.025 15.6096 121.781 14.6486 121.297 13.8037C120.798 12.9736 120.06 12.3126 119.181 11.9061C118.074 11.4075 116.868 11.1663 115.654 11.2007H108.818V27.8695H113.051V21.8876H115.668C116.886 21.9247 118.095 21.6708 119.195 21.1469ZM117.708 16.5689C117.708 17.1395 117.496 17.6899 117.114 18.1137C116.604 18.5136 115.962 18.7075 115.315 18.6569H113.023V14.4809H115.315C115.962 14.4267 116.605 14.6209 117.114 15.024C117.496 15.4478 117.708 15.9982 117.708 16.5689ZM130.933 14.4527V17.8245H136.577V20.9565H130.933V24.6175H137.317V27.8695H126.736V11.2007H137.317V14.4527H130.933ZM152.313 24.7375H146.789L146.803 11.2007H142.571V27.8695H152.313V24.7375ZM161.069 24.7375H166.592V27.8695H156.836V11.2007H161.069V24.7375ZM175.45 24.9349H181.911L182.934 27.8835H187.413L181.15 11.2148H176.268L169.997 27.8835H174.413L175.45 24.9349ZM178.702 15.687L180.818 21.7888H176.586L178.702 15.687Z" fill="white"/>
</svg>
